<svg id="Capa_1" enable-background="new 0 0 502 502" height="512" viewBox="0 0 502 502" width="512" xmlns="http://www.w3.org/2000/svg" xmlns:xlink="http://www.w3.org/1999/xlink"><linearGradient id="lg1"><stop offset="0" stop-color="#ea7d32"/><stop offset="1" stop-color="#f0b160"/></linearGradient><linearGradient id="SVGID_1_" gradientUnits="userSpaceOnUse" x1="351.445" x2="351.445" xlink:href="#lg1" y1="258.506" y2="33.693"/><linearGradient id="SVGID_2_" gradientUnits="userSpaceOnUse" x1="150.555" x2="150.555" xlink:href="#lg1" y1="258.506" y2="33.693"/><linearGradient id="SVGID_3_" gradientTransform="matrix(-1 0 0 -1 102 1402)" gradientUnits="userSpaceOnUse" x1="-48.555" x2="-48.555" xlink:href="#lg1" y1="1158.506" y2="933.693"/><linearGradient id="SVGID_4_" gradientTransform="matrix(-1 0 0 -1 102 1402)" gradientUnits="userSpaceOnUse" x1="-249.445" x2="-249.445" xlink:href="#lg1" y1="1158.506" y2="933.693"/><linearGradient id="lg2"><stop offset="0" stop-color="#f4c22c"/><stop offset="1" stop-color="#f9e198"/></linearGradient><linearGradient id="SVGID_5_" gradientUnits="userSpaceOnUse" x1="251" x2="251" xlink:href="#lg2" y1="125.591" y2="-.266"/><linearGradient id="SVGID_6_" gradientTransform="matrix(0 -1 1 0 -650 752)" gradientUnits="userSpaceOnUse" x1="501" x2="501" xlink:href="#lg2" y1="775.591" y2="649.734"/><linearGradient id="SVGID_7_" gradientTransform="matrix(-1 0 0 -1 102 1402)" gradientUnits="userSpaceOnUse" x1="-149" x2="-149" xlink:href="#lg2" y1="1025.591" y2="899.734"/><linearGradient id="SVGID_8_" gradientTransform="matrix(0 1 -1 0 752 650)" gradientUnits="userSpaceOnUse" x1="-399" x2="-399" xlink:href="#lg2" y1="375.591" y2="249.734"/><linearGradient id="SVGID_9_" gradientUnits="userSpaceOnUse" x1="251" x2="251" y1="513.599" y2="-76.533"><stop offset="0" stop-color="#f4d952"/><stop offset="1" stop-color="#f9edaf"/></linearGradient><g><path d="m361.011 237.865c62.485-28.258 75.182-90.843 77.692-137.647 1.118-20.859-16.063-38.04-36.922-36.922-46.804 2.51-109.389 15.207-137.647 77.692z" fill="url(#SVGID_1_)"/><path d="m237.865 140.989c-28.258-62.485-90.843-75.182-137.647-77.692-20.859-1.118-38.04 16.063-36.922 36.922 2.51 46.804 15.207 109.389 77.692 137.647z" fill="url(#SVGID_2_)"/><path d="m140.989 264.134c-62.485 28.258-75.182 90.843-77.692 137.647-1.118 20.859 16.063 38.04 36.922 36.922 46.804-2.51 109.389-15.207 137.647-77.692z" fill="url(#SVGID_3_)"/><path d="m94.84 300.387c-8.965 11.714-15.439 24.651-20.108 37.941 19.132 38.46 50.481 69.809 88.941 88.941 13.29-4.669 26.227-11.143 37.941-20.108-50.713-16.024-90.751-56.062-106.774-106.774z" fill="#e06e1c"/><path d="m264.134 361.011c28.258 62.485 90.843 75.182 137.647 77.692 20.859 1.118 38.04-16.063 36.922-36.922-2.51-46.804-15.207-109.389-77.692-137.647z" fill="url(#SVGID_4_)"/><path d="m319.502 163.923c24.203-64.165-11.074-117.397-42.395-152.268-13.959-15.54-38.256-15.54-52.215 0-31.321 34.87-66.597 88.103-42.395 152.268z" fill="url(#SVGID_5_)"/><path d="m163.923 182.498c-64.165-24.203-117.397 11.074-152.268 42.395-15.54 13.959-15.54 38.256 0 52.215 34.87 31.321 88.103 66.597 152.268 42.395z" fill="url(#SVGID_6_)"/><path d="m182.498 338.077c-24.203 64.165 11.074 117.397 42.395 152.267 13.959 15.54 38.256 15.54 52.215 0 31.321-34.87 66.597-88.103 42.395-152.267z" fill="url(#SVGID_7_)"/><path d="m251 414.747c-27.231 0-52.905-6.655-75.497-18.415 1.945 14.643 6.52 28.389 12.628 41.104 19.749 6.681 40.892 10.311 62.868 10.311 5.955 0 11.847-.269 17.668-.793 8.788-.791 15.43-8.301 15.07-17.117-.384-9.414-8.559-16.598-17.943-15.753-4.872.438-9.807.663-14.794.663z" fill="#fcb500"/><path d="m338.077 319.502c64.165 24.203 117.397-11.074 152.267-42.395 15.54-13.959 15.54-38.256 0-52.215-34.87-31.321-88.103-66.597-152.267-42.395z" fill="url(#SVGID_8_)"/><circle cx="251" cy="251" fill="url(#SVGID_9_)" r="163.747"/><g><ellipse cx="163.114" cy="263.379" fill="#eaadcd" rx="14.936" ry="12.003"/><ellipse cx="338.885" cy="263.379" fill="#eaadcd" rx="14.936" ry="12.003"/><path d="m188.721 237.727c7.183 0 13.813 1.589 19.159 4.273 4.544 2.281 9.962-.802 10.365-5.87.113-1.423.125-2.875.029-4.348-.991-15.146-13.602-27.24-28.775-27.629-16.713-.429-30.396 12.992-30.396 29.608 0 .843.035 1.678.105 2.503.422 5.01 5.856 7.995 10.349 5.738 5.348-2.685 11.979-4.275 19.164-4.275z" fill="#fff"/><path d="m251 273.565c-6.447 0-12.894-2.155-18.274-6.465-4.989-3.997-5.794-11.282-1.797-16.271 3.997-4.99 11.282-5.793 16.271-1.797 2.237 1.792 5.361 1.792 7.598 0 4.988-3.997 12.273-3.193 16.271 1.797 3.997 4.989 3.193 12.274-1.796 16.271-5.379 4.311-11.826 6.465-18.273 6.465z" fill="#3b3b44"/><path d="m188.721 237.727c5.926 0 11.474 1.082 16.237 2.967.911-2.129 1.415-4.47 1.415-6.933 0-9.749-7.903-17.652-17.652-17.652s-17.652 7.903-17.652 17.652c0 2.463.504 4.803 1.415 6.933 4.764-1.885 10.312-2.967 16.237-2.967z" fill="#3b3b44"/><path d="m313.279 237.727c7.183 0 13.813 1.589 19.158 4.273 4.544 2.281 9.962-.802 10.365-5.87.113-1.423.125-2.875.029-4.348-.991-15.146-13.602-27.24-28.775-27.629-16.713-.429-30.396 12.992-30.396 29.608 0 .843.035 1.678.105 2.503.422 5.01 5.857 7.995 10.349 5.738 5.348-2.685 11.98-4.275 19.165-4.275z" fill="#fff"/><path d="m313.279 237.727c5.926 0 11.473 1.082 16.237 2.967.911-2.129 1.415-4.47 1.415-6.933 0-9.749-7.903-17.652-17.652-17.652s-17.652 7.903-17.652 17.652c0 2.463.504 4.803 1.415 6.933 4.763-1.885 10.311-2.967 16.237-2.967z" fill="#3b3b44"/></g><path d="m87.253 251c0-27.235 6.661-52.91 18.425-75.503-14.648 1.945-28.397 6.525-41.116 12.636-6.678 19.75-10.309 40.891-10.309 62.867 0 21.98 3.643 43.121 10.324 62.874 12.716 6.108 26.463 10.686 41.108 12.63-11.767-22.594-18.432-48.267-18.432-75.504z" fill="#fcb500"/><g fill="#fffde3"><path d="m309.559 140.772c-1.475 0-2.972-.328-4.386-1.02-3.238-1.584-6.586-3.042-9.951-4.334-5.155-1.98-7.73-7.765-5.75-12.92 1.979-5.156 7.768-7.729 12.92-5.75 3.912 1.502 7.805 3.198 11.568 5.039 4.962 2.427 7.016 8.415 4.59 13.377-1.736 3.546-5.291 5.608-8.991 5.608z"/><path d="m363.355 188.498c-3.278 0-6.489-1.609-8.403-4.566-5.37-8.292-11.739-15.951-18.931-22.762-4.01-3.798-4.183-10.127-.385-14.137 3.799-4.009 10.127-4.182 14.137-.384 8.344 7.902 15.734 16.789 21.966 26.413 3.002 4.636 1.678 10.827-2.958 13.829-1.679 1.087-3.563 1.607-5.426 1.607z"/></g></g></svg>