<svg id="Capa_1" enable-background="new 0 0 502 502" height="512" viewBox="0 0 502 502" width="512" xmlns="http://www.w3.org/2000/svg" xmlns:xlink="http://www.w3.org/1999/xlink"><linearGradient id="SVGID_1_" gradientUnits="userSpaceOnUse" x1="251" x2="251" y1="671.278" y2="136.594"><stop offset="0" stop-color="#74d2e8"/><stop offset="1" stop-color="#baeaf5"/></linearGradient><linearGradient id="lg1"><stop offset="0" stop-color="#6ac65e"/><stop offset="1" stop-color="#afd986"/></linearGradient><linearGradient id="SVGID_2_" gradientUnits="userSpaceOnUse" x1="376.549" x2="376.549" xlink:href="#lg1" y1="366.861" y2="164.067"/><linearGradient id="SVGID_3_" gradientUnits="userSpaceOnUse" x1="124.761" x2="124.761" xlink:href="#lg1" y1="366.861" y2="164.066"/><linearGradient id="lg2"><stop offset="0" stop-color="#ffc4b5"/><stop offset="1" stop-color="#ffdcce"/></linearGradient><linearGradient id="SVGID_4_" gradientTransform="matrix(-1 0 0 1 902 0)" gradientUnits="userSpaceOnUse" x1="373.264" x2="533.475" xlink:href="#lg2" y1="353.45" y2="353.45"/><linearGradient id="SVGID_5_" gradientUnits="userSpaceOnUse" x1="355.695" x2="355.695" xlink:href="#lg2" y1="250.515" y2="444.529"/><linearGradient id="SVGID_6_" gradientUnits="userSpaceOnUse" x1="-26.736" x2="133.475" xlink:href="#lg2" y1="353.45" y2="353.45"/><linearGradient id="SVGID_7_" gradientTransform="matrix(-1 0 0 1 902 0)" gradientUnits="userSpaceOnUse" x1="755.695" x2="755.695" xlink:href="#lg2" y1="250.515" y2="444.529"/><linearGradient id="SVGID_8_" gradientUnits="userSpaceOnUse" x1="40.601" x2="213.345" xlink:href="#lg1" y1="102.526" y2="102.526"/><linearGradient id="SVGID_9_" gradientUnits="userSpaceOnUse" x1="306.916" x2="472.615" xlink:href="#lg1" y1="119.259" y2="119.259"/><g><circle cx="251" cy="210.547" fill="url(#SVGID_1_)" r="210.547"/><path d="m173.74 279.13c-12.381-12.383-28.844-19.203-46.355-19.203-9.842 0-19.353 2.154-27.993 6.239v-28.038c0-12.371-3.534-23.921-9.632-33.677-4.93-7.886-15.663-9.651-22.84-3.737-5.783 4.765-6.889 13.058-2.842 19.365 3.359 5.234 5.315 11.453 5.315 18.05v65.431c0 11.033 5.093 21.448 13.801 28.223l12.42 9.663c-6.697-13.326-4.493-29.981 6.63-41.104 13.885-13.886 36.399-13.887 50.284-.001l24.797 24.795c15.128 15.13 23.459 35.243 23.459 56.637v33.277c9.752 2.386 19.768 4.097 30 5.072v-38.349c0-29.407-11.451-57.054-32.247-77.851z" fill="#17c5d9"/><path d="m328.26 279.13c12.381-12.383 28.844-19.203 46.355-19.203 9.842 0 19.353 2.154 27.993 6.239v-28.038c0-12.371 3.534-23.921 9.632-33.677 4.93-7.886 15.663-9.651 22.84-3.737 5.783 4.765 6.889 13.058 2.842 19.365-3.359 5.234-5.315 11.453-5.315 18.05v65.431c0 11.033-5.093 21.448-13.801 28.223l-12.42 9.663c6.697-13.326 4.493-29.981-6.63-41.104-13.885-13.886-36.399-13.887-50.284-.001l-24.797 24.795c-15.128 15.13-23.459 35.243-23.459 56.637v33.277c-9.752 2.386-19.768 4.097-30 5.072v-38.349c0-29.407 11.451-57.054 32.246-77.851z" fill="#17c5d9"/><path d="m301.558 250c-33.979 38.785 36.423 102.134 37.141 152.004 67.41-30.929 115.663-96.404 122.102-173.763-28.384 5.955-109.493-35.029-159.243 21.759z" fill="url(#SVGID_2_)"/><path d="m418.807 331.783c8.708-6.775 13.801-17.19 13.801-28.223v-65.431c0-3.964.718-7.786 2.01-11.346-8.962-1.468-19.108-3.437-29.892-4.965-1.377 5.206-2.118 10.671-2.118 16.311v28.038c-8.641-4.085-18.151-6.239-27.993-6.239-17.511 0-33.974 6.819-46.355 19.203l-24.794 24.793c-1.081 1.081-2.131 2.185-3.161 3.302 4.103 9.683 9.336 19.672 14.611 29.73 2.844-4.195 6.099-8.155 9.762-11.818l24.797-24.795c13.885-13.887 36.399-13.886 50.284.001 11.123 11.123 13.327 27.778 6.63 41.104z" fill="#1ab858"/><path d="m132.128 233.432c-41.684 7.612-71.635 7.993-90.44-.065 9.119 84.593 68.332 154.17 147.383 178.464-11.986-24.773-3.792-60.696 11.711-95.323 21.535-48.103-7.636-94.219-68.654-83.076z" fill="url(#SVGID_3_)"/><path d="m198.535 303.923-24.795-24.793c-12.381-12.383-28.844-19.203-46.355-19.203-9.842 0-19.353 2.154-27.993 6.239v-28.023c-11.169 1.083-21.16 1.395-30 .901v64.515c0 11.033 5.093 21.448 13.801 28.224l12.42 9.663c-6.697-13.326-4.493-29.981 6.63-41.104 13.885-13.886 36.399-13.887 50.284-.001l24.797 24.795c5.31 5.31 9.762 11.245 13.331 17.623 2.774-8.7 6.217-17.517 10.128-26.253 1.07-2.39 2.01-4.775 2.832-7.149-1.629-1.856-3.318-3.672-5.08-5.434z" fill="#1ab858"/><path d="m361.196 381.774c5.135-7.382 11.419-14.051 18.749-19.754l38.863-30.236c8.708-6.775 13.801-17.191 13.801-28.224v-65.431c0-18.219 14.91-33.568 33.125-33.222 17.657.335 31.868 14.753 31.868 32.491v66.162c0 31.31-14.172 60.293-38.884 79.52l-38.863 30.236c-6.13 4.77-9.646 11.959-9.646 19.726v27.348c0 22.981-18.63 41.611-41.611 41.611h-25.768c-22.981 0-41.611-18.63-41.611-41.611v-78.615h59.977z" fill="url(#SVGID_4_)"/><path d="m336.775 462.834c19.637 0 35.557-15.919 35.557-35.556v-45.503c0-2.4.935-4.656 2.631-6.354l24.794-24.794c13.886-13.885 13.886-36.398.001-50.284-13.885-13.887-36.399-13.887-50.284-.001l-24.797 24.795c-15.128 15.13-23.459 35.243-23.459 56.637v45.503c.001 19.637 15.92 35.557 35.557 35.557z" fill="url(#SVGID_5_)"/><path d="m140.804 381.774c-5.135-7.382-11.419-14.051-18.749-19.754l-38.863-30.236c-8.708-6.775-13.801-17.191-13.801-28.224v-65.431c0-18.219-14.91-33.568-33.125-33.222-17.657.335-31.868 14.753-31.868 32.491v66.162c0 31.31 14.172 60.293 38.883 79.52l38.863 30.236c6.13 4.77 9.646 11.959 9.646 19.726v27.348c0 22.981 18.63 41.611 41.611 41.611h25.769c22.981 0 41.611-18.63 41.611-41.611v-78.615h-59.977z" fill="url(#SVGID_6_)"/><path d="m165.225 462.834c-19.637 0-35.557-15.919-35.557-35.556v-45.503c0-2.4-.935-4.656-2.631-6.354l-24.795-24.794c-13.886-13.885-13.886-36.398-.001-50.284 13.885-13.887 36.399-13.887 50.284-.001l24.797 24.795c15.128 15.13 23.459 35.243 23.459 56.637v45.503c0 19.637-15.919 35.557-35.556 35.557z" fill="url(#SVGID_7_)"/><path d="m44.16 171.092c24.891-2.583 36.837-23.558 72.792-21.533 46.645 2.628 75.216-11.14 74.486-48.28-.552-28.087-20.279-61.497-55.122-67.319-47.183 30.706-81.286 79.804-92.156 137.132z" fill="url(#SVGID_8_)"/><path d="m451.615 146.5c-10.645-33.372-29.385-63.124-53.913-86.958-10.722 13.925-23.296 26.593-46.394 27.862-37.228 2.045-43.037 30.242-40.444 53.491 3.914 35.088 41.805 46.945 65.667 31.311 18.048-11.825 52.085-28.802 75.084-25.706z" fill="url(#SVGID_9_)"/><g><ellipse cx="163.114" cy="201.925" fill="#eaadcd" rx="14.936" ry="12.003"/><ellipse cx="338.886" cy="201.925" fill="#eaadcd" rx="14.936" ry="12.003"/><circle cx="188.721" cy="172.308" fill="#fff" r="29.618"/><circle cx="313.279" cy="172.308" fill="#fff" r="29.618"/><g fill="#3b3b44"><g><circle cx="188.721" cy="172.308" r="17.652"/><circle cx="313.279" cy="172.308" r="17.652"/></g><path d="m251 202.868c-5.248 0-10.495-1.984-14.776-5.954-2.025-1.877-2.145-5.041-.267-7.066s5.042-2.145 7.066-.267c4.697 4.354 11.257 4.354 15.954 0 2.025-1.876 5.188-1.758 7.066.267 1.877 2.025 1.758 5.189-.267 7.066-4.281 3.969-9.528 5.954-14.776 5.954z"/></g></g><g><path d="m357.846 78.838c-2.101 0-4.218-.659-6.022-2.023-10.873-8.218-22.712-15.09-35.188-20.424-5.079-2.171-7.436-8.047-5.264-13.125 2.171-5.078 8.049-7.435 13.125-5.264 13.968 5.971 27.22 13.662 39.387 22.858 4.406 3.33 5.278 9.601 1.948 14.007-1.968 2.602-4.959 3.971-7.986 3.971z" fill="#dff7fa"/><path d="m394.829 116.547c-3.096 0-6.148-1.433-8.104-4.13-2.065-2.847-4.246-5.664-6.482-8.373-3.517-4.258-2.916-10.562 1.343-14.078 4.257-3.518 10.561-2.916 14.078 1.343 2.503 3.031 4.943 6.183 7.253 9.368 3.242 4.471 2.246 10.724-2.226 13.966-1.773 1.285-3.827 1.904-5.862 1.904z" fill="#c7f0b6"/></g></g></svg>