<svg id="Flat" height="512" viewBox="0 0 512 512" width="512" xmlns="http://www.w3.org/2000/svg"><path d="m56 112a8 8 0 0 1 -5.657-13.657l32-32a8 8 0 0 1 11.314 11.314l-32 32a7.974 7.974 0 0 1 -5.657 2.343z" fill="#f7b030"/><path d="m136.006 112a8 8 0 0 1 -7.161-4.424l-24-48a8 8 0 1 1 14.31-7.156l24 48a8 8 0 0 1 -7.149 11.58z" fill="#f7b030"/><path d="m24 280h144v32h-144z" fill="#2d85cc"/><path d="m184 280h144v32h-144z" fill="#8f9e46"/><path d="m344 280h144v32h-144z" fill="#f7b030"/><path d="m160 184h-128l-8 96h144z" fill="#3397e8"/><path d="m40 488h112l8-176h-128z" fill="#3397e8"/><path d="m200 488h112l8-176h-128z" fill="#b1bd70"/><path d="m360 488h112l8-176h-128z" fill="#ffb632"/><path d="m128 216h-64l-8 64h80z" fill="#2978b8"/><path d="m320 184h-128l-8 96h144z" fill="#b1bd70"/><path d="m288 216h-64l-8 64h80z" fill="#828c52"/><path d="m480 184h-128l-8 96h144z" fill="#ffb632"/><path d="m448 216h-64l-8 64h80z" fill="#e09f2c"/><g fill="#e9eef2"><circle cx="416" cy="400" r="24"/><circle cx="256" cy="400" r="24"/><circle cx="96" cy="400" r="24"/></g><path d="m400 40h32v32h-32z" fill="#2978b8"/><path d="m424.845 180.422-8.845-4.422-8.845 4.422a16 16 0 0 1 -23.155-14.311v-78.111a16 16 0 0 1 16-16h32a16 16 0 0 1 16 16v78.111a16 16 0 0 1 -23.155 14.311z" fill="#dadcde"/><path d="m384 104h64v40h-64z" fill="#2978b8"/><path d="m256 96a8 8 0 0 1 -8-8v-16a8 8 0 0 1 16 0v16a8 8 0 0 1 -8 8z" fill="#828c52"/><path d="m256 152a32 32 0 0 1 32 32 0 0 0 0 1 0 0h-64a0 0 0 0 1 0 0 32 32 0 0 1 32-32z" fill="#eb423f" transform="matrix(-1 0 0 -1 512 336)"/><path d="m256 88a32 32 0 0 1 32 32 0 0 0 0 1 0 0h-64a0 0 0 0 1 0 0 32 32 0 0 1 32-32z" fill="#eb423f"/><path d="m232 152 8-16v-16h32v16l8 16z" fill="#dadcde"/><path d="m48 104h96v80h-96z" fill="#e09f2c"/><path d="m80 104h32v32h-32z" fill="#dadcde"/></svg>